<svg xmlns="http://www.w3.org/2000/svg" width="256" height="256" viewBox="0 0 100 100"><rect width="100" height="100" rx="20" fill="#000000"></rect><path fill="#ffffff" d="M20.70 21.78Q24.09 21.78 26.05 22.51Q28.02 23.24 30.10 24.63L30.10 24.63Q31.79 25.71 32.71 25.71L32.71 25.71Q33.41 25.71 33.79 24.90Q34.18 24.09 34.41 22.32L34.41 22.32L36.18 22.32Q35.79 26.78 35.79 38.03L35.79 38.03L34.02 38.03Q33.56 31.79 30.44 27.52Q27.32 23.24 21.39 23.24L21.39 23.24Q17.24 23.24 14.62 25.74Q12.00 28.25 12.00 32.17L12.00 32.17Q12.00 35.10 13.35 37.26Q14.70 39.41 16.77 40.95Q18.85 42.49 22.70 44.88L22.70 44.88L24.94 46.27Q29.79 49.27 32.60 51.54Q35.41 53.81 37.10 56.74Q38.80 59.66 38.80 63.59L38.80 63.59Q38.80 70.60 34.18 74.41Q29.56 78.22 22.47 78.22L22.47 78.22Q18.78 78.22 16.43 77.45Q14.08 76.68 11.92 75.37L11.92 75.37Q10.23 74.29 9.31 74.29L9.31 74.29Q8.61 74.29 8.23 75.10Q7.84 75.91 7.61 77.68L7.61 77.68L5.84 77.68Q6.15 73.45 6.15 59.20L6.15 59.20L7.92 59.20Q8.46 66.98 11.77 71.83Q15.08 76.68 21.93 76.68L21.93 76.68Q26.09 76.68 29.02 74.10Q31.94 71.52 31.94 66.44L31.94 66.44Q31.94 62.13 29.06 59.12Q26.17 56.12 19.93 52.35L19.93 52.35Q15.39 49.58 12.58 47.42Q9.77 45.26 8.00 42.22Q6.23 39.18 6.23 35.10L6.23 35.10Q6.23 28.63 10.38 25.21Q14.54 21.78 20.70 21.78L20.70 21.78ZM94.16 22.63L94.16 24.17Q91.46 24.32 90.16 24.98Q88.85 25.63 88.38 27.13Q87.92 28.63 87.92 31.56L87.92 31.56L87.92 77.53L86.15 77.53L53.81 27.55L53.81 68.21Q53.81 71.21 54.31 72.68Q54.81 74.14 56.28 74.79Q57.74 75.45 60.82 75.60L60.82 75.60L60.82 77.14Q58.05 76.91 52.96 76.91L52.96 76.91Q48.34 76.91 45.80 77.14L45.80 77.14L45.80 75.60Q48.50 75.45 49.81 74.79Q51.12 74.14 51.58 72.64Q52.04 71.14 52.04 68.21L52.04 68.21L52.04 30.79Q52.04 27.86 51.58 26.55Q51.12 25.24 49.85 24.78Q48.58 24.32 45.80 24.17L45.80 24.17L45.80 22.63Q48.34 22.86 52.96 22.86L52.96 22.86Q56.43 22.86 58.97 22.63L58.97 22.63L86.15 64.51L86.15 31.56Q86.15 28.56 85.65 27.09Q85.15 25.63 83.69 24.98Q82.22 24.32 79.14 24.17L79.14 24.17L79.14 22.63Q81.92 22.86 87.00 22.86L87.00 22.86Q91.62 22.86 94.16 22.63L94.16 22.63Z"></path></svg>
